<svg xmlns="http://www.w3.org/2000/svg" viewBox="0 0 256 256" role="img" aria-labelledby="title">
  <title>GitHub</title>
  <rect width="256" height="256" rx="48" fill="#181717"/>
  <path fill="#fff" d="M128 39a91 91 0 0 0-29 177c5 1 7-2 7-5v-20c-29 6-35-12-35-12-5-12-12-15-12-15-10-7 1-7 1-7 11 1 17 11 17 11 10 17 26 12 32 9 1-7 4-12 7-15-23-3-47-12-47-51 0-11 4-21 11-28-1-3-5-13 1-27 0 0 9-3 29 11a100 100 0 0 1 52 0c20-14 29-11 29-11 6 14 2 24 1 27 7 7 11 17 11 28 0 39-24 48-47 51 4 3 7 10 7 20v29c0 3 2 6 7 5A91 91 0 0 0 128 39Z"/>
</svg>
